<?xml version="1.0" encoding="UTF-8"?>
<svg xmlns="http://www.w3.org/2000/svg" xmlns:xlink="http://www.w3.org/1999/xlink" width="48pt" height="25pt" viewBox="0 0 48 25" version="1.1">
<g id="surface2">
<path style=" stroke:none;fill-rule:nonzero;fill:rgb(0%,0%,0%);fill-opacity:1;" d="M 9.859375 1.929688 C 5.003906 3.113281 1.972656 5.378906 1.316406 8.304688 C 0.949219 9.9375 1.335938 11.628906 2.472656 13.335938 C 5.355469 17.6875 12.898438 21.542969 21.683594 23.164062 C 27.675781 24.269531 33.554688 24.246094 38.238281 23.101562 C 43.089844 21.921875 46.125 19.65625 46.78125 16.730469 C 46.871094 16.335938 46.914062 15.933594 46.914062 15.53125 C 46.914062 14.277344 46.484375 12.992188 45.625 11.699219 C 42.738281 7.347656 35.199219 3.492188 26.414062 1.871094 C 20.421875 0.769531 14.542969 0.789062 9.859375 1.929688 "/>
<path style=" stroke:none;fill-rule:nonzero;fill:rgb(100%,86.666667%,0%);fill-opacity:1;" d="M 46.144531 16.589844 C 44.902344 22.117188 34.003906 24.773438 21.800781 22.523438 C 9.597656 20.277344 0.710938 13.972656 1.953125 8.445312 C 3.195312 2.917969 14.089844 0.261719 26.292969 2.511719 C 38.5 4.757812 47.382812 11.0625 46.144531 16.589844 "/>
<path style=" stroke:none;fill-rule:nonzero;fill:rgb(0%,0%,0%);fill-opacity:1;" d="M 40.660156 18.617188 L 19.910156 18.601562 C 18.085938 18.648438 17.253906 19.621094 16.933594 20.144531 C 10.089844 16.835938 5.179688 11.992188 5.976562 8.109375 C 7.011719 3.074219 16.617188 1.289062 27.105469 4.226562 C 32.769531 5.808594 37.472656 8.398438 40.566406 11.257812 C 40.566406 11.257812 43.664062 13.914062 42.6875 16.894531 C 42.6875 16.894531 42.175781 18.539062 40.660156 18.617188 "/>
<path style=" stroke:none;fill-rule:nonzero;fill:rgb(0%,0%,0%);fill-opacity:1;" d="M 4.535156 8.035156 C 4.863281 6.519531 5.90625 5.214844 7.558594 4.261719 C 8.425781 3.757812 9.4375 3.359375 10.574219 3.058594 C 8.878906 3.429688 7.402344 3.984375 6.222656 4.714844 C 4.617188 5.710938 3.632812 7.023438 3.378906 8.503906 C 2.734375 12.242188 6.785156 16.496094 13.761719 19.488281 C 7.328125 16.132812 3.742188 11.738281 4.535156 8.035156 "/>
<path style=" stroke:none;fill-rule:nonzero;fill:rgb(0%,0%,0%);fill-opacity:1;" d="M 44.175781 12.65625 C 42.59375 10.269531 39.398438 8.03125 35.292969 6.292969 C 38.933594 8.109375 41.761719 10.355469 43.222656 12.738281 C 44.082031 14.136719 44.386719 15.476562 44.132812 16.714844 C 43.902344 17.835938 43.203125 18.867188 42.097656 19.757812 C 43.746094 18.804688 44.789062 17.632812 45.078125 16.328125 C 45.335938 15.183594 45.035156 13.949219 44.175781 12.65625 "/>
<path style=" stroke:none;fill-rule:nonzero;fill:rgb(93.72549%,24.313725%,25.882353%);fill-opacity:1;" d="M 16.429688 10.320312 L 18.160156 6.261719 L 14.101562 6.261719 L 13.203125 10.320312 Z M 16.429688 10.320312 "/>
<path style=" stroke:none;fill-rule:nonzero;fill:rgb(100%,83.921569%,34.901961%);fill-opacity:1;" d="M 7.613281 10.320312 L 8.511719 6.261719 L 8.21875 6.261719 L 7.320312 10.320312 Z M 7.613281 10.320312 "/>
<path style=" stroke:none;fill-rule:nonzero;fill:rgb(100%,83.921569%,34.901961%);fill-opacity:1;" d="M 8.667969 10.320312 L 9.570312 6.261719 L 9.207031 6.261719 L 8.308594 10.320312 Z M 8.667969 10.320312 "/>
<path style=" stroke:none;fill-rule:nonzero;fill:rgb(100%,83.921569%,34.901961%);fill-opacity:1;" d="M 9.710938 10.320312 L 10.609375 6.261719 L 10.175781 6.261719 L 9.277344 10.320312 Z M 9.710938 10.320312 "/>
<path style=" stroke:none;fill-rule:nonzero;fill:rgb(100%,83.921569%,34.901961%);fill-opacity:1;" d="M 10.875 10.320312 L 11.773438 6.261719 L 11.15625 6.261719 L 10.257812 10.320312 Z M 10.875 10.320312 "/>
<path style=" stroke:none;fill-rule:nonzero;fill:rgb(100%,83.921569%,34.901961%);fill-opacity:1;" d="M 11.957031 10.320312 L 12.855469 6.261719 L 12.113281 6.261719 L 11.214844 10.320312 Z M 11.957031 10.320312 "/>
<path style=" stroke:none;fill-rule:nonzero;fill:rgb(93.72549%,24.313725%,25.882353%);fill-opacity:1;" d="M 12.984375 10.320312 L 13.882812 6.261719 L 13.105469 6.261719 L 12.207031 10.320312 Z M 12.984375 10.320312 "/>
<path style=" stroke:none;fill-rule:nonzero;fill:rgb(72.54902%,19.607843%,57.647059%);fill-opacity:1;" d="M 21.820312 10.320312 L 22.71875 6.261719 L 18.109375 6.261719 L 16.367188 10.320312 Z M 21.820312 10.320312 "/>
<path style=" stroke:none;fill-rule:nonzero;fill:rgb(0%,47.843137%,76.078431%);fill-opacity:1;" d="M 29.144531 10.320312 L 30.046875 6.261719 L 22.707031 6.261719 L 21.738281 10.320312 Z M 29.144531 10.320312 "/>
<path style=" stroke:none;fill-rule:nonzero;fill:rgb(100%,100%,100%);fill-opacity:1;" d="M 24.296875 6.949219 L 24.09375 7.761719 L 23.398438 7.765625 L 23.53125 7.132812 L 22.710938 7.128906 L 22.175781 9.523438 L 22.972656 9.523438 L 23.183594 8.640625 L 23.890625 8.640625 L 23.597656 9.765625 L 23.019531 10.246094 L 21.742188 10.246094 L 21.390625 9.734375 L 22.082031 6.898438 L 22.707031 6.335938 L 23.851562 6.335938 Z M 24.296875 6.949219 "/>
<path style=" stroke:none;fill-rule:nonzero;fill:rgb(100%,100%,100%);fill-opacity:1;" d="M 21.585938 6.335938 C 21.585938 6.335938 21.824219 6.71875 21.9375 6.871094 L 21.796875 7.4375 L 21.097656 7.433594 L 21.152344 7.113281 L 20.359375 7.117188 L 20.15625 7.921875 L 21.132812 7.917969 L 21.574219 8.410156 L 21.246094 9.734375 L 20.65625 10.246094 L 19.417969 10.246094 L 19.03125 9.703125 L 19.132812 9.15625 L 19.824219 9.160156 L 19.773438 9.488281 L 20.613281 9.484375 L 20.820312 8.671875 L 19.753906 8.664062 L 19.394531 8.132812 L 19.695312 6.894531 L 20.308594 6.339844 Z M 21.585938 6.335938 "/>
<path style=" stroke:none;fill-rule:nonzero;fill:rgb(100%,100%,100%);fill-opacity:1;" d="M 18.914062 10.242188 L 18.199219 10.246094 L 18.238281 9.5625 L 17.453125 9.5625 L 17.140625 10.246094 L 15.578125 10.242188 L 15.410156 7.976562 L 14.859375 10.246094 L 14.226562 10.242188 L 15.128906 6.335938 L 16.023438 6.335938 L 16.1875 8.570312 L 16.699219 6.339844 L 17.40625 6.335938 L 16.585938 9.832031 L 18.082031 6.339844 L 19.125 6.339844 Z M 17.773438 8.851562 L 18.253906 8.851562 L 18.308594 7.589844 Z M 17.773438 8.851562 "/>
<path style=" stroke:none;fill-rule:nonzero;fill:rgb(100%,100%,100%);fill-opacity:1;" d="M 28.550781 6.339844 L 28.957031 6.898438 L 28.652344 8.121094 L 28.320312 8.429688 L 28.515625 8.773438 L 28.175781 10.246094 L 27.480469 10.246094 L 27.78125 8.898438 L 26.9375 8.898438 L 26.644531 10.246094 L 25.25 10.246094 L 25.285156 9.523438 L 24.535156 9.523438 L 24.207031 10.246094 L 23.496094 10.25 L 25.144531 6.339844 L 26.171875 6.335938 L 26.039062 9.695312 L 26.84375 6.335938 Z M 27.414062 7.097656 L 27.164062 8.117188 L 27.933594 8.113281 L 28.171875 7.097656 Z M 24.820312 8.851562 L 25.300781 8.851562 L 25.355469 7.59375 Z M 24.820312 8.851562 "/>
<path style=" stroke:none;fill-rule:nonzero;fill:rgb(100%,100%,100%);fill-opacity:1;" d="M 28.980469 9.738281 C 29.023438 9.785156 29.039062 9.84375 29.023438 9.914062 C 29.011719 9.980469 28.980469 10.039062 28.921875 10.085938 C 28.863281 10.136719 28.800781 10.160156 28.730469 10.160156 C 28.664062 10.160156 28.609375 10.136719 28.570312 10.085938 C 28.53125 10.039062 28.515625 9.980469 28.53125 9.914062 C 28.542969 9.84375 28.574219 9.785156 28.632812 9.738281 C 28.691406 9.6875 28.75 9.664062 28.820312 9.664062 C 28.890625 9.664062 28.941406 9.6875 28.980469 9.738281 M 29.015625 9.710938 C 28.96875 9.652344 28.90625 9.625 28.828125 9.625 C 28.746094 9.625 28.675781 9.652344 28.609375 9.710938 C 28.542969 9.765625 28.503906 9.832031 28.488281 9.914062 C 28.476562 9.992188 28.492188 10.058594 28.539062 10.113281 C 28.582031 10.171875 28.648438 10.199219 28.726562 10.199219 C 28.804688 10.199219 28.878906 10.171875 28.945312 10.113281 C 29.011719 10.058594 29.050781 9.992188 29.066406 9.914062 C 29.078125 9.832031 29.0625 9.765625 29.015625 9.710938 M 28.820312 9.898438 C 28.808594 9.902344 28.792969 9.90625 28.765625 9.90625 L 28.71875 9.90625 L 28.738281 9.792969 L 28.785156 9.792969 C 28.816406 9.792969 28.835938 9.796875 28.851562 9.804688 C 28.863281 9.8125 28.867188 9.828125 28.863281 9.847656 C 28.859375 9.871094 28.84375 9.890625 28.820312 9.898438 M 28.632812 10.066406 L 28.6875 10.066406 L 28.710938 9.945312 L 28.753906 9.945312 C 28.785156 9.945312 28.804688 9.949219 28.816406 9.953125 C 28.832031 9.964844 28.839844 9.988281 28.832031 10.027344 L 28.828125 10.050781 L 28.828125 10.066406 L 28.878906 10.066406 L 28.878906 10.0625 C 28.878906 10.0625 28.878906 10.058594 28.878906 10.046875 C 28.878906 10.039062 28.878906 10.03125 28.878906 10.023438 L 28.886719 10 C 28.890625 9.984375 28.886719 9.96875 28.878906 9.953125 C 28.867188 9.9375 28.851562 9.925781 28.828125 9.921875 C 28.847656 9.917969 28.863281 9.914062 28.875 9.90625 C 28.898438 9.894531 28.914062 9.871094 28.917969 9.84375 C 28.925781 9.804688 28.914062 9.777344 28.882812 9.765625 C 28.867188 9.757812 28.839844 9.753906 28.800781 9.753906 L 28.6875 9.753906 Z M 28.632812 10.066406 "/>
<path style=" stroke:none;fill-rule:nonzero;fill:rgb(0%,0%,0%);fill-opacity:1;" d="M 19.019531 21.265625 C 18.847656 21.265625 18.683594 21.214844 18.59375 21.144531 C 18.488281 21.0625 18.503906 20.949219 18.558594 20.839844 L 19.082031 19.773438 C 19.148438 19.640625 19.210938 19.519531 19.433594 19.421875 C 19.640625 19.332031 19.867188 19.332031 20.082031 19.332031 L 21.472656 19.332031 L 21.265625 19.75 L 20.074219 19.75 C 19.976562 19.75 19.808594 19.753906 19.769531 19.835938 L 19.355469 20.683594 C 19.289062 20.8125 19.304688 20.851562 19.539062 20.851562 L 20.726562 20.851562 L 20.523438 21.265625 Z M 19.019531 21.265625 "/>
<path style=" stroke:none;fill-rule:nonzero;fill:rgb(0%,0%,0%);fill-opacity:1;" d="M 23.113281 21.144531 C 22.898438 21.246094 22.730469 21.269531 22.496094 21.269531 L 21.574219 21.269531 C 21.339844 21.269531 21.183594 21.25 21.070312 21.144531 C 20.945312 21.03125 20.992188 20.933594 21.066406 20.785156 L 21.78125 19.335938 L 22.5 19.335938 L 21.820312 20.714844 C 21.761719 20.832031 21.785156 20.851562 21.996094 20.851562 L 22.480469 20.851562 C 22.667969 20.851562 22.734375 20.832031 22.789062 20.722656 L 23.46875 19.335938 L 24.183594 19.335938 L 23.46875 20.78125 C 23.394531 20.933594 23.347656 21.03125 23.113281 21.144531 "/>
<path style=" stroke:none;fill-rule:nonzero;fill:rgb(0%,0%,0%);fill-opacity:1;" d="M 25.660156 20.570312 L 24.660156 20.570312 L 24.320312 21.265625 L 23.601562 21.265625 L 24.550781 19.335938 L 26.214844 19.335938 C 26.625 19.335938 26.859375 19.472656 26.738281 19.71875 L 26.507812 20.191406 C 26.390625 20.425781 26.058594 20.570312 25.660156 20.570312 M 25.953125 19.867188 C 25.996094 19.777344 25.925781 19.75 25.78125 19.75 L 25.0625 19.75 L 24.871094 20.144531 L 25.566406 20.144531 C 25.710938 20.144531 25.816406 20.140625 25.867188 20.039062 Z M 25.953125 19.867188 "/>
<path style=" stroke:none;fill-rule:nonzero;fill:rgb(0%,0%,0%);fill-opacity:1;" d="M 28.632812 21.265625 L 27.222656 21.265625 L 27.425781 20.851562 L 28.582031 20.851562 C 28.894531 20.851562 28.890625 20.742188 28.960938 20.601562 C 29.007812 20.507812 28.890625 20.503906 28.773438 20.503906 L 28.257812 20.503906 C 27.894531 20.503906 27.671875 20.339844 27.777344 20.125 L 27.980469 19.714844 C 28.035156 19.601562 28.199219 19.460938 28.390625 19.394531 C 28.535156 19.34375 28.707031 19.332031 28.84375 19.332031 L 30.292969 19.332031 L 30.089844 19.75 L 28.933594 19.75 C 28.625 19.75 28.636719 19.828125 28.5625 19.976562 C 28.519531 20.066406 28.601562 20.085938 28.742188 20.085938 L 29.261719 20.085938 C 29.664062 20.085938 29.851562 20.234375 29.738281 20.46875 L 29.546875 20.859375 C 29.421875 21.113281 29.066406 21.265625 28.632812 21.265625 "/>
<path style=" stroke:none;fill-rule:nonzero;fill:rgb(0%,0%,0%);fill-opacity:1;" d="M 30.390625 21.265625 C 29.921875 21.265625 29.648438 21.15625 29.792969 20.863281 L 30.335938 19.753906 C 30.464844 19.5 30.789062 19.332031 31.238281 19.332031 L 32.71875 19.332031 L 32.511719 19.75 L 31.222656 19.75 C 31.105469 19.75 31.023438 19.820312 30.996094 19.875 L 30.890625 20.085938 L 32.347656 20.085938 L 32.140625 20.503906 L 30.6875 20.503906 L 30.582031 20.71875 C 30.515625 20.851562 30.621094 20.851562 30.804688 20.851562 L 31.972656 20.851562 L 31.765625 21.265625 Z M 30.390625 21.265625 "/>
<path style=" stroke:none;fill-rule:nonzero;fill:rgb(0%,0%,0%);fill-opacity:1;" d="M 32.769531 21.265625 L 32.054688 21.265625 L 33 19.332031 L 34.675781 19.332031 C 35.097656 19.332031 35.292969 19.476562 35.171875 19.726562 L 34.980469 20.113281 C 34.871094 20.335938 34.539062 20.503906 34.148438 20.503906 C 34.097656 20.503906 33.988281 20.496094 33.9375 20.496094 L 34.402344 21.265625 L 33.65625 21.265625 L 33.183594 20.464844 Z M 34.050781 20.152344 C 34.1875 20.152344 34.261719 20.121094 34.300781 20.042969 L 34.386719 19.867188 C 34.425781 19.785156 34.351562 19.75 34.21875 19.75 L 33.511719 19.75 L 33.324219 20.152344 Z M 34.050781 20.152344 "/>
<path style=" stroke:none;fill-rule:nonzero;fill:rgb(0%,0%,0%);fill-opacity:1;" d="M 34.71875 21.265625 L 35.667969 19.332031 L 36.386719 19.332031 L 35.4375 21.265625 Z M 34.71875 21.265625 "/>
<path style=" stroke:none;fill-rule:nonzero;fill:rgb(0%,0%,0%);fill-opacity:1;" d="M 36.507812 21.265625 C 36.039062 21.265625 35.761719 21.15625 35.90625 20.863281 L 36.453125 19.753906 C 36.578125 19.5 36.90625 19.332031 37.351562 19.332031 L 38.835938 19.332031 L 38.628906 19.75 L 37.339844 19.75 C 37.222656 19.75 37.140625 19.820312 37.113281 19.875 L 37.007812 20.085938 L 38.464844 20.085938 L 38.257812 20.503906 L 36.800781 20.503906 L 36.695312 20.71875 C 36.632812 20.851562 36.734375 20.851562 36.917969 20.851562 L 38.085938 20.851562 L 37.882812 21.265625 Z M 36.507812 21.265625 "/>
<path style=" stroke:none;fill-rule:nonzero;fill:rgb(0%,0%,0%);fill-opacity:1;" d="M 39.585938 21.265625 L 38.175781 21.265625 L 38.378906 20.851562 L 39.535156 20.851562 C 39.847656 20.851562 39.84375 20.742188 39.914062 20.601562 C 39.960938 20.507812 39.847656 20.503906 39.726562 20.503906 L 39.210938 20.503906 C 38.847656 20.503906 38.625 20.339844 38.734375 20.125 L 38.933594 19.714844 C 38.988281 19.601562 39.152344 19.460938 39.34375 19.394531 C 39.488281 19.34375 39.660156 19.332031 39.796875 19.332031 L 41.25 19.332031 L 41.042969 19.75 L 39.886719 19.75 C 39.578125 19.75 39.589844 19.828125 39.515625 19.976562 C 39.472656 20.066406 39.558594 20.085938 39.695312 20.085938 L 40.214844 20.085938 C 40.621094 20.085938 40.804688 20.234375 40.691406 20.46875 L 40.5 20.859375 C 40.375 21.113281 40.019531 21.265625 39.585938 21.265625 "/>
<path style=" stroke:none;fill-rule:nonzero;fill:rgb(0%,0%,0%);fill-opacity:1;" d="M 41.75 23.007812 L 41.75 23.128906 L 41.539062 23.128906 L 41.539062 23.671875 L 41.390625 23.671875 L 41.390625 23.128906 L 41.179688 23.128906 L 41.179688 23.007812 Z M 41.75 23.007812 "/>
<path style=" stroke:none;fill-rule:nonzero;fill:rgb(0%,0%,0%);fill-opacity:1;" d="M 42.308594 23.007812 L 42.519531 23.007812 L 42.519531 23.671875 L 42.382812 23.671875 L 42.382812 23.171875 C 42.382812 23.148438 42.382812 23.128906 42.382812 23.117188 L 42.25 23.671875 L 42.105469 23.671875 L 41.972656 23.117188 C 41.972656 23.128906 41.972656 23.148438 41.972656 23.171875 L 41.972656 23.671875 L 41.835938 23.671875 L 41.835938 23.007812 L 42.050781 23.007812 L 42.179688 23.53125 Z M 42.308594 23.007812 "/>
<path style=" stroke:none;fill-rule:nonzero;fill:rgb(100%,86.666667%,0%);fill-opacity:1;" d="M 34.101562 14.679688 C 35.09375 13.410156 35.871094 11.917969 35.871094 10.84375 C 35.871094 10.285156 35.46875 9.894531 34.945312 9.59375 C 34.953125 10.761719 34.546875 13.492188 34.101562 14.679688 "/>
<path style=" stroke:none;fill-rule:nonzero;fill:rgb(100%,86.666667%,0%);fill-opacity:1;" d="M 30.851562 17.808594 C 33.175781 17.035156 36.539062 15.230469 38.882812 13.621094 C 39.078125 13.488281 39.230469 13.363281 39.230469 13.144531 C 39.230469 12.761719 38.53125 12.253906 38.191406 12.050781 C 36.351562 13.957031 32.683594 16.816406 30.851562 17.808594 "/>
<path style=" stroke:none;fill-rule:nonzero;fill:rgb(100%,86.666667%,0%);fill-opacity:1;" d="M 33.007812 16.1875 C 34.4375 15.203125 36.519531 13.347656 37.222656 12.339844 C 37.386719 12.101562 37.511719 11.964844 37.511719 11.714844 C 37.511719 11.308594 37.035156 11.007812 36.691406 10.800781 C 35.871094 12.730469 34.023438 15.132812 33.007812 16.1875 "/>
<path style=" stroke:none;fill-rule:nonzero;fill:rgb(100%,86.666667%,0%);fill-opacity:1;" d="M 34.3125 13.453125 C 34.496094 12.234375 34.386719 10.761719 34.152344 9.839844 C 34.023438 9.339844 33.566406 8.769531 33.148438 8.59375 C 33.699219 10.152344 34.171875 12.375 34.3125 13.453125 "/>
<path style=" stroke:none;fill-rule:nonzero;fill:rgb(100%,86.666667%,0%);fill-opacity:1;" d="M 33.902344 11.742188 C 33.46875 10.574219 32.386719 8.140625 30.796875 7.539062 C 31.832031 8.675781 33.371094 10.933594 33.902344 11.742188 "/>
<path style=" stroke:none;fill-rule:nonzero;fill:rgb(100%,86.666667%,0%);fill-opacity:1;" d="M 35.503906 16.191406 L 35.503906 16.523438 L 35.449219 16.523438 L 35.449219 16.191406 L 35.34375 16.191406 L 35.34375 16.148438 L 35.609375 16.148438 L 35.609375 16.191406 Z M 35.503906 16.191406 "/>
<path style=" stroke:none;fill-rule:nonzero;fill:rgb(100%,86.666667%,0%);fill-opacity:1;" d="M 36.066406 16.523438 L 36.035156 16.308594 C 36.027344 16.265625 36.027344 16.238281 36.023438 16.214844 C 36.019531 16.234375 36.011719 16.257812 36.003906 16.285156 L 35.921875 16.523438 L 35.867188 16.523438 L 35.792969 16.300781 C 35.78125 16.273438 35.773438 16.242188 35.765625 16.214844 C 35.765625 16.246094 35.761719 16.277344 35.757812 16.3125 L 35.730469 16.523438 L 35.679688 16.523438 L 35.734375 16.148438 L 35.796875 16.148438 L 35.875 16.386719 C 35.886719 16.414062 35.894531 16.4375 35.898438 16.460938 C 35.90625 16.433594 35.910156 16.414062 35.917969 16.390625 L 36 16.148438 L 36.066406 16.148438 L 36.121094 16.523438 Z M 36.066406 16.523438 "/>
<path style=" stroke:none;fill-rule:nonzero;fill:rgb(100%,100%,100%);fill-opacity:1;" d="M 17.816406 15.613281 C 17.527344 15.613281 17.242188 15.578125 17.011719 15.519531 L 17.046875 14.910156 C 17.273438 14.992188 17.585938 15.058594 17.878906 15.058594 C 18.316406 15.058594 18.671875 14.875 18.671875 14.445312 C 18.671875 13.605469 16.921875 13.960938 16.921875 12.671875 C 16.921875 11.988281 17.460938 11.511719 18.390625 11.511719 C 18.628906 11.511719 18.871094 11.539062 19.117188 11.582031 L 19.082031 12.152344 C 18.847656 12.082031 18.59375 12.042969 18.355469 12.042969 C 17.859375 12.042969 17.605469 12.273438 17.605469 12.601562 C 17.605469 13.398438 19.351562 13.105469 19.351562 14.351562 C 19.351562 15.082031 18.773438 15.613281 17.816406 15.613281 "/>
<path style=" stroke:none;fill-rule:nonzero;fill:rgb(100%,100%,100%);fill-opacity:1;" d="M 21.195312 13.082031 C 20.722656 13.082031 20.464844 13.636719 20.464844 14.136719 L 20.464844 15.042969 C 20.601562 15.082031 20.75 15.101562 20.929688 15.101562 C 21.433594 15.101562 21.777344 14.792969 21.777344 14 C 21.777344 13.410156 21.59375 13.082031 21.195312 13.082031 M 20.910156 15.597656 C 20.746094 15.597656 20.621094 15.589844 20.464844 15.5625 L 20.464844 16.835938 L 19.832031 16.835938 L 19.832031 12.621094 L 20.429688 12.621094 C 20.429688 12.773438 20.425781 13.007812 20.394531 13.167969 L 20.40625 13.167969 C 20.574219 12.796875 20.910156 12.5625 21.363281 12.5625 C 22.0625 12.5625 22.445312 13.058594 22.445312 13.941406 C 22.445312 14.976562 21.894531 15.597656 20.910156 15.597656 "/>
<path style=" stroke:none;fill-rule:nonzero;fill:rgb(100%,100%,100%);fill-opacity:1;" d="M 24.480469 13.179688 C 23.894531 13.074219 23.609375 13.484375 23.609375 14.363281 L 23.609375 15.554688 L 22.976562 15.554688 L 22.976562 12.621094 L 23.578125 12.621094 C 23.578125 12.785156 23.5625 13.046875 23.519531 13.269531 L 23.53125 13.269531 C 23.664062 12.875 23.957031 12.507812 24.511719 12.5625 Z M 24.480469 13.179688 "/>
<path style=" stroke:none;fill-rule:nonzero;fill:rgb(100%,100%,100%);fill-opacity:1;" d="M 25.699219 15.554688 L 25.066406 15.554688 L 25.066406 12.621094 L 25.699219 12.621094 Z M 25.386719 12.183594 C 25.160156 12.183594 24.976562 12.007812 24.976562 11.789062 C 24.976562 11.570312 25.160156 11.390625 25.386719 11.390625 C 25.605469 11.390625 25.789062 11.5625 25.789062 11.789062 C 25.789062 12.007812 25.605469 12.183594 25.386719 12.183594 "/>
<path style=" stroke:none;fill-rule:nonzero;fill:rgb(100%,100%,100%);fill-opacity:1;" d="M 28.308594 15.554688 L 28.308594 13.664062 C 28.308594 13.300781 28.207031 13.085938 27.871094 13.085938 C 27.425781 13.085938 27.101562 13.554688 27.101562 14.136719 L 27.101562 15.554688 L 26.464844 15.554688 L 26.464844 12.621094 L 27.070312 12.621094 C 27.070312 12.773438 27.058594 13.027344 27.027344 13.191406 L 27.035156 13.199219 C 27.207031 12.820312 27.5625 12.5625 28.058594 12.5625 C 28.730469 12.5625 28.9375 12.980469 28.9375 13.5 L 28.9375 15.554688 Z M 28.308594 15.554688 "/>
<path style=" stroke:none;fill-rule:nonzero;fill:rgb(100%,100%,100%);fill-opacity:1;" d="M 30.683594 15.609375 C 30.054688 15.609375 29.867188 15.367188 29.867188 14.710938 L 29.867188 13.109375 L 29.304688 13.109375 L 29.304688 12.621094 L 29.867188 12.621094 L 29.867188 11.6875 L 30.492188 11.515625 L 30.492188 12.621094 L 31.269531 12.621094 L 31.269531 13.109375 L 30.5 13.109375 L 30.5 14.515625 C 30.5 14.953125 30.589844 15.070312 30.886719 15.070312 C 31.015625 15.070312 31.160156 15.054688 31.269531 15.023438 L 31.269531 15.542969 C 31.097656 15.578125 30.878906 15.609375 30.683594 15.609375 "/>
<path style=" stroke:none;fill-rule:nonzero;fill:rgb(100%,100%,100%);fill-opacity:1;" d="M 31.683594 11.65625 L 31.652344 11.65625 L 31.652344 11.746094 L 31.671875 11.746094 C 31.71875 11.746094 31.734375 11.71875 31.734375 11.695312 C 31.734375 11.667969 31.71875 11.65625 31.683594 11.65625 M 31.738281 11.898438 L 31.65625 11.773438 L 31.652344 11.773438 L 31.652344 11.898438 L 31.609375 11.898438 L 31.609375 11.621094 L 31.6875 11.621094 C 31.753906 11.621094 31.78125 11.648438 31.78125 11.691406 C 31.78125 11.738281 31.75 11.765625 31.703125 11.773438 C 31.710938 11.78125 31.71875 11.792969 31.730469 11.8125 L 31.792969 11.898438 Z M 31.6875 11.5625 C 31.578125 11.5625 31.492188 11.652344 31.492188 11.761719 C 31.492188 11.871094 31.578125 11.960938 31.6875 11.960938 C 31.796875 11.960938 31.882812 11.875 31.882812 11.765625 C 31.882812 11.65625 31.796875 11.5625 31.6875 11.5625 M 31.6875 12.007812 C 31.546875 12.007812 31.441406 11.902344 31.441406 11.761719 C 31.441406 11.628906 31.550781 11.515625 31.6875 11.515625 C 31.828125 11.515625 31.933594 11.621094 31.933594 11.761719 C 31.933594 11.894531 31.820312 12.007812 31.6875 12.007812 "/>
</g>
</svg>
