<?xml version="1.0" encoding="UTF-8"?>
<svg xmlns="http://www.w3.org/2000/svg" version="1.0" height="92" width="510">
<path fill="#ED1B2F" d="M129.7,0l-20.2,91.4h17.5L147.1,0H129.7z M152,0l-20.2,91.4h72.3L243,0H152z"/>
<path fill="#FFCB05" d="M20.2,0L0,91.4h6.5L26.7,0H20.2z M42.3,0L22.1,91.4h8.1L50.4,0H42.3z M64,0L43.8,91.4h9.7L73.7,0H64z M86,0L65.8,91.4h13.8L100,0H86z M107.4,0L87.25,91.4h16.7L124,0H107.4z"/>
<path fill="#C5168D" d="M242.8,0l-39,91.4h121.2L345.2,0H242.8z"/>
<path fill="#0066B3" d="M345,0l-20.2,91.4H489.3L509.5,0H345z"/>
<path fill="#FFFFFF" d="M330.9,14.3l-15.5,63.9l7.9,11.5l28.6-0l13-10.8 l6.5-25.3h-15.9l-4.7,19.8h-17.9l12-53.8h18.4l-3,14.3h15.6l4.6-18.4L370.6,1.7l-25.7-0 L330.9,14.3z M319.8,1.7h-28.6l-13.8,12.5l-6.75,27.9l8,12.1h23.9 l-4.6,18.4h-18.8l1.2-7.4h-15.5l-2.3,12.3l8.7,12.2h27.7l13.3-11.5l7.3-29.8l-9.8-11.1h-22 l4.6-18.1h17.8l-1.3,7.2h15.7l3.2-12.7L319.8,1.7z M210.3,1.7l-11.6,50.2L195.1,1.7h-20L154.8,89.6h14.2 l12.3-51l3.8,51h35.1l7-15.4h14.5V58.3h-7.3l12-28.4l-1.2,28.4h-5.7V74.3h5.3 l-0.9,15.4h16l4.7-87.9h-23.3l-33.6,78.6L226.1,1.7L210.3,1.7z M450.4,18.9h17l-5.4,22.9l-9.4,0v17.6h6l-6.7,30.3 l15.6,0l7.6-33.1l-4.4-7.8l7.5-7l6.8-27.5l-9.1-12.6l-38.2-0l-18,75.6l3-75.6  l-23,0l-37,88h15.9l7.4-16.3l13.2,0V58.3h-6.8l12-28.4L403.1,58.3h-5.6v15.1l5.2,0 l-0.8,16.3h31.3l6.6-30.4h15.2V41.7l-10.2,0l5.6-22.9"/>
</svg>